<svg xmlns="http://www.w3.org/2000/svg" viewBox="0 0 480 480" width="480" height="480" role="img" aria-label="Animated mosaic portrait of Rox dT" shape-rendering="crispEdges" preserveAspectRatio="xMidYMid slice"><title>Animated mosaic portrait of Rox dT</title><rect x="0" y="0" width="30" height="30" fill="#2e2e2e"/><rect x="30" y="0" width="30" height="30" fill="#333333"/><rect x="60" y="0" width="30" height="30" fill="#353535"/><rect x="90" y="0" width="30" height="30" fill="#333333"/><rect x="120" y="0" width="30" height="30" fill="#2c2c2c"><animate attributeName="fill" values="#2c2c2c;#303030;#2e2e2e;#282828;#282828;#252525;#262626;#242424;#252525;#242424" dur="2.4s" calcMode="discrete" repeatCount="indefinite"/></rect><rect x="150" y="0" width="30" height="30" fill="#2f2f2f"><animate attributeName="fill" values="#2f2f2f;#373737;#454545;#464646;#484848;#4b4b4b;#4f4f4f;#4d4d4d;#525252;#555555" dur="2.4s" calcMode="discrete" repeatCount="indefinite"/></rect><rect x="180" y="0" width="30" height="30" fill="#494949"><animate attributeName="fill" values="#494949;#8e8e8e;#919191;#969696;#929292;#969696;#979797;#969696;#979797;#989898" dur="2.4s" calcMode="discrete" repeatCount="indefinite"/></rect><rect x="210" y="0" width="30" height="30" fill="#4e4e4e"><animate attributeName="fill" values="#4e4e4e;#707070;#6e6e6e;#707070;#6b6b6b;#6a6a6a;#686868;#696969;#696969;#666666" dur="2.4s" calcMode="discrete" repeatCount="indefinite"/></rect><rect x="240" y="0" width="30" height="30" fill="#3d3d3d"><animate attributeName="fill" values="#3d3d3d;#282828;#252525;#252525;#212121;#232323;#242424;#232323;#232323;#212121" dur="2.4s" calcMode="discrete" repeatCount="indefinite"/></rect><rect x="270" y="0" width="30" height="30" fill="#151515"/><rect x="300" y="0" width="30" height="30" fill="#151515"/><rect x="330" y="0" width="30" height="30" fill="#0f0f0f"/><rect x="360" y="0" width="30" height="30" fill="#0e0e0e"/><rect x="390" y="0" width="30" height="30" fill="#0e0e0e"/><rect x="420" y="0" width="30" height="30" fill="#0b0b0b"/><rect x="450" y="0" width="30" height="30" fill="#030303"/><rect x="0" y="30" width="30" height="30" fill="#383838"/><rect x="30" y="30" width="30" height="30" fill="#393939"/><rect x="60" y="30" width="30" height="30" fill="#3a3a3a"/><rect x="90" y="30" width="30" height="30" fill="#2d2d2d"><animate attributeName="fill" values="#2d2d2d;#343434;#363636;#353535;#313131;#313131;#313131;#313131;#313131;#313131" dur="2.4s" calcMode="discrete" repeatCount="indefinite"/></rect><rect x="120" y="30" width="30" height="30" fill="#060606"><animate attributeName="fill" values="#060606;#202020;#252525;#292929;#2e2e2e;#2f2f2f;#333333;#333333;#353535;#363636" dur="2.4s" calcMode="discrete" repeatCount="indefinite"/></rect><rect x="150" y="30" width="30" height="30" fill="#bfbfbf"><animate attributeName="fill" values="#bfbfbf;#a9a9a9;#bbbbbb;#bfbfbf;#c9c9c9;#c9c9c9;#cacaca;#cacaca;#cbcbcb;#cbcbcb" dur="2.4s" calcMode="discrete" repeatCount="indefinite"/></rect><rect x="180" y="30" width="30" height="30" fill="#cecece"/><rect x="210" y="30" width="30" height="30" fill="#b2b2b2"><animate attributeName="fill" values="#b2b2b2;#b1b1b1;#acacac;#a9a9a9;#a2a2a2;#a2a2a2;#a1a1a1;#a1a1a1;#a1a1a1;#9f9f9f" dur="2.4s" calcMode="discrete" repeatCount="indefinite"/></rect><rect x="240" y="30" width="30" height="30" fill="#747474"><animate attributeName="fill" values="#747474;#4b4b4b;#4b4b4b;#464646;#454545;#474747;#464646;#464646;#454445;#434343" dur="2.4s" calcMode="discrete" repeatCount="indefinite"/></rect><rect x="270" y="30" width="30" height="30" fill="#0d0d0d"/><rect x="300" y="30" width="30" height="30" fill="#151515"/><rect x="330" y="30" width="30" height="30" fill="#101010"/><rect x="360" y="30" width="30" height="30" fill="#0a0a0a"/><rect x="390" y="30" width="30" height="30" fill="#080808"/><rect x="420" y="30" width="30" height="30" fill="#0d0d0d"/><rect x="450" y="30" width="30" height="30" fill="#030303"/><rect x="0" y="60" width="30" height="30" fill="#333333"/><rect x="30" y="60" width="30" height="30" fill="#3a3a3a"/><rect x="60" y="60" width="30" height="30" fill="#3b3b3b"/><rect x="90" y="60" width="30" height="30" fill="#2e2e2e"/><rect x="120" y="60" width="30" height="30" fill="#060606"><animate attributeName="fill" values="#060606;#252525;#3b3b3b;#444444;#444444;#4b4b4b;#4f4f4f;#4f4f4f;#515151;#555555" dur="2.4s" calcMode="discrete" repeatCount="indefinite"/></rect><rect x="150" y="60" width="30" height="30" fill="#d2d2d2"/><rect x="180" y="60" width="30" height="30" fill="#d6d6d6"><animate attributeName="fill" values="#d6d6d6;#d2d2d2;#cbcbcb;#cbcbcb;#cbcbcb;#c8c8c8;#c7c7c7;#c6c6c6;#c5c5c5;#c5c5c5" dur="2.4s" calcMode="discrete" repeatCount="indefinite"/></rect><rect x="210" y="60" width="30" height="30" fill="#a4a4a4"><animate attributeName="fill" values="#a4a4a4;#8e8e8e;#919191;#838383;#858585;#818181;#808080;#828282;#808080;#838383" dur="2.4s" calcMode="discrete" repeatCount="indefinite"/></rect><rect x="240" y="60" width="30" height="30" fill="#626262"><animate attributeName="fill" values="#626262;#7f7f7f;#646464;#616161;#616161;#5f5f5f;#5e5e5e;#5f5f5f;#5e5e5e;#595959" dur="2.4s" calcMode="discrete" repeatCount="indefinite"/></rect><rect x="270" y="60" width="30" height="30" fill="#3c3c3c"><animate attributeName="fill" values="#3c3c3c;#1e1e1e;#232323;#191919;#181818;#1a1a1a;#191919;#191919;#171717;#161616" dur="2.4s" calcMode="discrete" repeatCount="indefinite"/></rect><rect x="300" y="60" width="30" height="30" fill="#111111"/><rect x="330" y="60" width="30" height="30" fill="#0e0e0e"/><rect x="360" y="60" width="30" height="30" fill="#0c0c0c"/><rect x="390" y="60" width="30" height="30" fill="#090909"/><rect x="420" y="60" width="30" height="30" fill="#101010"/><rect x="450" y="60" width="30" height="30" fill="#030303"/><rect x="0" y="90" width="30" height="30" fill="#2f2f2f"/><rect x="30" y="90" width="30" height="30" fill="#363636"/><rect x="60" y="90" width="30" height="30" fill="#393939"/><rect x="90" y="90" width="30" height="30" fill="#2e2e2e"/><rect x="120" y="90" width="30" height="30" fill="#070707"><animate attributeName="fill" values="#070707;#232323;#242424;#393939;#3a3a3a;#3f3f3f;#414141;#404040;#434343;#444444" dur="2.4s" calcMode="discrete" repeatCount="indefinite"/></rect><rect x="150" y="90" width="30" height="30" fill="#7e7e7e"><animate attributeName="fill" values="#7e7e7e;#c9c9c9;#b0b0b0;#b3b3b3;#b4b4b4;#b1b1b1;#b2b2b2;#b4b4b4;#b3b3b3;#b5b5b5" dur="2.4s" calcMode="discrete" repeatCount="indefinite"/></rect><rect x="180" y="90" width="30" height="30" fill="#989898"><animate attributeName="fill" values="#989898;#b3b3b3;#a8a8a8;#a4a4a4;#9f9f9f;#a0a0a0;#a2a2a2;#a0a0a0;#a0a0a0;#9e9e9e" dur="2.4s" calcMode="discrete" repeatCount="indefinite"/></rect><rect x="210" y="90" width="30" height="30" fill="#777777"><animate attributeName="fill" values="#777777;#8d8d8d;#7c7c7c;#7c7c7c;#868686;#787878;#7a7a7a;#777777;#767676;#737373" dur="2.4s" calcMode="discrete" repeatCount="indefinite"/></rect><rect x="240" y="90" width="30" height="30" fill="#3e3e3e"><animate attributeName="fill" values="#3e3e3e;#555555;#363636;#3a3a3a;#424242;#3d3d3d;#3f3f3f;#3f3f3f;#3f3f3f;#3e3e3e" dur="2.4s" calcMode="discrete" repeatCount="indefinite"/></rect><rect x="270" y="90" width="30" height="30" fill="#1f1f1f"><animate attributeName="fill" values="#1f1f1f;#323232;#272727;#2d2d2d;#303030;#2c2c2c;#2c2c2c;#2c2c2c;#2d2d2d;#292929" dur="2.4s" calcMode="discrete" repeatCount="indefinite"/></rect><rect x="300" y="90" width="30" height="30" fill="#0f0f0f"/><rect x="330" y="90" width="30" height="30" fill="#0e0e0e"/><rect x="360" y="90" width="30" height="30" fill="#0c0c0c"/><rect x="390" y="90" width="30" height="30" fill="#040404"/><rect x="420" y="90" width="30" height="30" fill="#060606"/><rect x="450" y="90" width="30" height="30" fill="#050505"/><rect x="0" y="120" width="30" height="30" fill="#242424"/><rect x="30" y="120" width="30" height="30" fill="#2b2b2b"/><rect x="60" y="120" width="30" height="30" fill="#2f2f2f"/><rect x="90" y="120" width="30" height="30" fill="#282828"/><rect x="120" y="120" width="30" height="30" fill="#0d0d0d"><animate attributeName="fill" values="#0d0d0d;#1d1d1d;#1b1b1b;#303030;#303030;#2d2d2d;#303030;#2e2e2e;#2d2d2d;#2d2d2d" dur="2.4s" calcMode="discrete" repeatCount="indefinite"/></rect><rect x="150" y="120" width="30" height="30" fill="#676767"><animate attributeName="fill" values="#676767;#686868;#797979;#8f8f8f;#8c8c8c;#8d8d8d;#8d8d8d;#919191;#909090;#919191" dur="2.4s" calcMode="discrete" repeatCount="indefinite"/></rect><rect x="180" y="120" width="30" height="30" fill="#7d7d7d"><animate attributeName="fill" values="#7d7d7d;#aaaaaa;#a1a1a1;#a2a2a2;#9e9e9e;#a0a0a0;#a0a0a0;#9f9f9f;#9f9f9f;#a0a0a0" dur="2.4s" calcMode="discrete" repeatCount="indefinite"/></rect><rect x="210" y="120" width="30" height="30" fill="#888888"><animate attributeName="fill" values="#888888;#afafaf;#b5b5b5;#aeaeae;#b0b0b0;#b4b4b4;#b8b8b8;#b8b8b8;#b7b7b7;#b8b8b8" dur="2.4s" calcMode="discrete" repeatCount="indefinite"/></rect><rect x="240" y="120" width="30" height="30" fill="#828282"><animate attributeName="fill" values="#828282;#8d8d8d;#a2a2a2;#a4a4a4;#9f9f9f;#a2a1a2;#a3a3a3;#a3a3a3;#a3a3a3;#a3a3a3" dur="2.4s" calcMode="discrete" repeatCount="indefinite"/></rect><rect x="270" y="120" width="30" height="30" fill="#616161"><animate attributeName="fill" values="#616161;#6d6d6d;#5e5e5e;#585858;#585858;#555555;#525252;#505050;#4e4e4e;#4a4a4a" dur="2.4s" calcMode="discrete" repeatCount="indefinite"/></rect><rect x="300" y="120" width="30" height="30" fill="#1d1d1d"><animate attributeName="fill" values="#1d1d1d;#0c0c0c;#121212;#0f0f0f;#0e0e0e;#0d0d0d;#0e0e0e;#0f0f0f;#0e0e0e;#0b0b0b" dur="2.4s" calcMode="discrete" repeatCount="indefinite"/></rect><rect x="330" y="120" width="30" height="30" fill="#131313"/><rect x="360" y="120" width="30" height="30" fill="#0a0a0a"/><rect x="390" y="120" width="30" height="30" fill="#020202"/><rect x="420" y="120" width="30" height="30" fill="#020202"/><rect x="450" y="120" width="30" height="30" fill="#050505"/><rect x="0" y="150" width="30" height="30" fill="#191919"/><rect x="30" y="150" width="30" height="30" fill="#1e1e1e"/><rect x="60" y="150" width="30" height="30" fill="#242424"/><rect x="90" y="150" width="30" height="30" fill="#1f1f1f"/><rect x="120" y="150" width="30" height="30" fill="#0f0f0f"><animate attributeName="fill" values="#0f0f0f;#242424;#161616;#131313;#1a1a1a;#1d1d1d;#212121;#212121;#232323;#232323" dur="2.4s" calcMode="discrete" repeatCount="indefinite"/></rect><rect x="150" y="150" width="30" height="30" fill="#8c8c8c"><animate attributeName="fill" values="#8c8c8c;#c2c2c2;#adadad;#c2c2c2;#c5c5c5;#c1c1c1;#c2c2c2;#c2c2c2;#c1c1c1;#bfbfbf" dur="2.4s" calcMode="discrete" repeatCount="indefinite"/></rect><rect x="180" y="150" width="30" height="30" fill="#696969"><animate attributeName="fill" values="#696969;#808080;#7a7a7a;#777777;#7a7a7a;#787878;#767676;#767676;#747474;#737373" dur="2.4s" calcMode="discrete" repeatCount="indefinite"/></rect><rect x="210" y="150" width="30" height="30" fill="#909090"><animate attributeName="fill" values="#909090;#adadad;#b6b6b6;#b4b4b4;#b6b6b6;#b6b6b6;#b6b6b6;#b7b7b7;#b7b7b7;#bababa" dur="2.4s" calcMode="discrete" repeatCount="indefinite"/></rect><rect x="240" y="150" width="30" height="30" fill="#c3c3c3"><animate attributeName="fill" values="#c3c3c3;#bcbcbc;#b2b2b2;#abaaab;#a6a6a6;#a6a6a6;#a6a6a6;#a5a5a5;#a5a5a5;#999999" dur="2.4s" calcMode="discrete" repeatCount="indefinite"/></rect><rect x="270" y="150" width="30" height="30" fill="#8d8d8d"><animate attributeName="fill" values="#8d8d8d;#4e4e4e;#505050;#434343;#3c3c3c;#3c3c3c;#3c3c3c;#3b3b3b;#3c3c3c;#343434" dur="2.4s" calcMode="discrete" repeatCount="indefinite"/></rect><rect x="300" y="150" width="30" height="30" fill="#272727"><animate attributeName="fill" values="#272727;#111111;#151515;#151515;#101010;#121212;#111111;#111111;#111111;#0e0e0e" dur="2.4s" calcMode="discrete" repeatCount="indefinite"/></rect><rect x="330" y="150" width="30" height="30" fill="#121212"><animate attributeName="fill" values="#121212;#0c0c0c;#0c0c0c;#0c0c0c;#090909;#090909;#090909;#090909;#090909;#090909" dur="2.4s" calcMode="discrete" repeatCount="indefinite"/></rect><rect x="360" y="150" width="30" height="30" fill="#070707"/><rect x="390" y="150" width="30" height="30" fill="#020202"/><rect x="420" y="150" width="30" height="30" fill="#020202"/><rect x="450" y="150" width="30" height="30" fill="#050505"/><rect x="0" y="180" width="30" height="30" fill="#131313"/><rect x="30" y="180" width="30" height="30" fill="#141414"/><rect x="60" y="180" width="30" height="30" fill="#171717"/><rect x="90" y="180" width="30" height="30" fill="#151515"/><rect x="120" y="180" width="30" height="30" fill="#0d0d0d"><animate attributeName="fill" values="#0d0d0d;#2b2b2b;#303030;#1e1e1e;#262626;#2b2b2b;#2d2d2d;#2c2c2c;#2e2e2e;#303030" dur="2.4s" calcMode="discrete" repeatCount="indefinite"/></rect><rect x="150" y="180" width="30" height="30" fill="#cdcdcd"><animate attributeName="fill" values="#cdcdcd;#d0d0d0;#bebebe;#c4c4c4;#c2c2c2;#c1c1c1;#c0c0c0;#c0c0c0;#c0c0c0;#bfbfbf" dur="2.4s" calcMode="discrete" repeatCount="indefinite"/></rect><rect x="180" y="180" width="30" height="30" fill="#4a4a4a"><animate attributeName="fill" values="#4a4a4a;#818181;#808080;#878787;#898989;#8b8b8b;#8b8b8b;#8c8c8c;#8e8e8e;#919191" dur="2.4s" calcMode="discrete" repeatCount="indefinite"/></rect><rect x="210" y="180" width="30" height="30" fill="#606060"><animate attributeName="fill" values="#606060;#afafaf;#b3b3b3;#b3b3b3;#b2b2b2;#b2b2b2;#b3b3b3;#b3b3b3;#b5b5b5;#b2b2b2" dur="2.4s" calcMode="discrete" repeatCount="indefinite"/></rect><rect x="240" y="180" width="30" height="30" fill="#a3a3a3"><animate attributeName="fill" values="#a3a3a3;#969696;#919191;#848484;#818181;#818181;#818181;#7f7f7f;#7e7e7e;#747474" dur="2.4s" calcMode="discrete" repeatCount="indefinite"/></rect><rect x="270" y="180" width="30" height="30" fill="#595959"><animate attributeName="fill" values="#595959;#454545;#424242;#414141;#303030;#303030;#303030;#303030;#303030;#2d2d2d" dur="2.4s" calcMode="discrete" repeatCount="indefinite"/></rect><rect x="300" y="180" width="30" height="30" fill="#191919"/><rect x="330" y="180" width="30" height="30" fill="#0b0b0b"/><rect x="360" y="180" width="30" height="30" fill="#050505"/><rect x="390" y="180" width="30" height="30" fill="#020202"/><rect x="420" y="180" width="30" height="30" fill="#020202"/><rect x="450" y="180" width="30" height="30" fill="#050505"/><rect x="0" y="210" width="30" height="30" fill="#0b0b0b"/><rect x="30" y="210" width="30" height="30" fill="#0f0f0f"/><rect x="60" y="210" width="30" height="30" fill="#141414"/><rect x="90" y="210" width="30" height="30" fill="#1c1c1c"><animate attributeName="fill" values="#1c1c1c;#131313;#141414;#131313;#131313;#131313;#131313;#131313;#131313;#141414" dur="2.4s" calcMode="discrete" repeatCount="indefinite"/></rect><rect x="120" y="210" width="30" height="30" fill="#383838"><animate attributeName="fill" values="#383838;#2e2e2e;#2f2f2f;#2b2b2b;#232323;#222222;#232323;#232323;#242424;#242424" dur="2.4s" calcMode="discrete" repeatCount="indefinite"/></rect><rect x="150" y="210" width="30" height="30" fill="#b8b8b8"><animate attributeName="fill" values="#b8b8b8;#828282;#828282;#787878;#7d7d7d;#848484;#828182;#848484;#818181;#838383" dur="2.4s" calcMode="discrete" repeatCount="indefinite"/></rect><rect x="180" y="210" width="30" height="30" fill="#959595"><animate attributeName="fill" values="#959595;#979797;#8b8b8b;#8d8d8d;#8e8e8e;#8b8b8b;#898989;#888888;#848484;#848484" dur="2.4s" calcMode="discrete" repeatCount="indefinite"/></rect><rect x="210" y="210" width="30" height="30" fill="#6e6d6e"><animate attributeName="fill" values="#6e6d6e;#747474;#5f5f5f;#515151;#585858;#545454;#535353;#575757;#565656;#585858" dur="2.4s" calcMode="discrete" repeatCount="indefinite"/></rect><rect x="240" y="210" width="30" height="30" fill="#515151"><animate attributeName="fill" values="#515151;#646464;#747474;#696969;#6c6c6c;#6c6c6c;#6d6d6d;#6d6d6d;#6d6d6d;#666666" dur="2.4s" calcMode="discrete" repeatCount="indefinite"/></rect><rect x="270" y="210" width="30" height="30" fill="#474747"><animate attributeName="fill" values="#474747;#474747;#474747;#444444;#343434;#343434;#343434;#343434;#343434;#333333" dur="2.4s" calcMode="discrete" repeatCount="indefinite"/></rect><rect x="300" y="210" width="30" height="30" fill="#282828"><animate attributeName="fill" values="#282828;#212121;#212121;#212121;#141414;#141414;#141414;#151515;#151515;#131313" dur="2.4s" calcMode="discrete" repeatCount="indefinite"/></rect><rect x="330" y="210" width="30" height="30" fill="#111111"><animate attributeName="fill" values="#111111;#050505;#050505;#080808;#090909;#090909;#0a0a0a;#0b0b0b;#0a0a0a;#0e0e0e" dur="2.4s" calcMode="discrete" repeatCount="indefinite"/></rect><rect x="360" y="210" width="30" height="30" fill="#050505"/><rect x="390" y="210" width="30" height="30" fill="#020202"/><rect x="420" y="210" width="30" height="30" fill="#020202"/><rect x="450" y="210" width="30" height="30" fill="#020202"/><rect x="0" y="240" width="30" height="30" fill="#0b0b0b"/><rect x="30" y="240" width="30" height="30" fill="#0e0e0e"/><rect x="60" y="240" width="30" height="30" fill="#0e0e0e"/><rect x="90" y="240" width="30" height="30" fill="#101010"/><rect x="120" y="240" width="30" height="30" fill="#171717"><animate attributeName="fill" values="#171717;#151515;#161616;#161616;#1e1e1e;#1f1f1f;#1f1f1f;#1f1f1f;#1f1f1f;#1f1f1f" dur="2.4s" calcMode="discrete" repeatCount="indefinite"/></rect><rect x="150" y="240" width="30" height="30" fill="#1f1f1f"><animate attributeName="fill" values="#1f1f1f;#343434;#323232;#3a3a3a;#3b3b3b;#3c3c3c;#3c3c3c;#3e3e3e;#3e3e3e;#3d3d3d" dur="2.4s" calcMode="discrete" repeatCount="indefinite"/></rect><rect x="180" y="240" width="30" height="30" fill="#646464"><animate attributeName="fill" values="#646464;#888788;#989798;#919191;#919191;#939393;#919191;#909090;#919191;#949494" dur="2.4s" calcMode="discrete" repeatCount="indefinite"/></rect><rect x="210" y="240" width="30" height="30" fill="#777777"><animate attributeName="fill" values="#777777;#848484;#808080;#868686;#898989;#8a8a8a;#8a8a8a;#898989;#8a8a8a;#878787" dur="2.4s" calcMode="discrete" repeatCount="indefinite"/></rect><rect x="240" y="240" width="30" height="30" fill="#656565"><animate attributeName="fill" values="#656565;#6d6d6d;#666666;#616161;#5d5d5d;#5d5d5d;#5d5d5d;#5b5b5b;#5c5c5c;#545454" dur="2.4s" calcMode="discrete" repeatCount="indefinite"/></rect><rect x="270" y="240" width="30" height="30" fill="#4b4b4b"><animate attributeName="fill" values="#4b4b4b;#313131;#2d2d2d;#2c2c2c;#1c1c1c;#1c1c1c;#1c1c1c;#1c1c1c;#1c1c1c;#181818" dur="2.4s" calcMode="discrete" repeatCount="indefinite"/></rect><rect x="300" y="240" width="30" height="30" fill="#0f0f0f"/><rect x="330" y="240" width="30" height="30" fill="#0a0a0a"><animate attributeName="fill" values="#0a0a0a;#141414;#0d0d0d;#0f0f0f;#101010;#101010;#121212;#131313;#131313;#161616" dur="2.4s" calcMode="discrete" repeatCount="indefinite"/></rect><rect x="360" y="240" width="30" height="30" fill="#0b0b0b"><animate attributeName="fill" values="#0b0b0b;#171717;#212121;#1e1e1e;#161616;#171717;#161616;#161616;#161616;#151515" dur="2.4s" calcMode="discrete" repeatCount="indefinite"/></rect><rect x="390" y="240" width="30" height="30" fill="#0d0d0d"><animate attributeName="fill" values="#0d0d0d;#0d0d0d;#0d0d0d;#0d0d0d;#040404;#030303;#040404;#040404;#040404;#040404" dur="2.4s" calcMode="discrete" repeatCount="indefinite"/></rect><rect x="420" y="240" width="30" height="30" fill="#020202"/><rect x="450" y="240" width="30" height="30" fill="#020202"/><rect x="0" y="270" width="30" height="30" fill="#090909"/><rect x="30" y="270" width="30" height="30" fill="#0a0a0a"/><rect x="60" y="270" width="30" height="30" fill="#0a0a0a"/><rect x="90" y="270" width="30" height="30" fill="#0d0d0d"/><rect x="120" y="270" width="30" height="30" fill="#141414"/><rect x="150" y="270" width="30" height="30" fill="#131313"/><rect x="180" y="270" width="30" height="30" fill="#6f6f6f"><animate attributeName="fill" values="#6f6f6f;#898989;#787878;#797979;#777777;#757575;#757575;#737373;#727272;#737373" dur="2.4s" calcMode="discrete" repeatCount="indefinite"/></rect><rect x="210" y="270" width="30" height="30" fill="#747474"><animate attributeName="fill" values="#747474;#7d7d7d;#707070;#636363;#5e5e5e;#575757;#585858;#565656;#545454;#4e4e4e" dur="2.4s" calcMode="discrete" repeatCount="indefinite"/></rect><rect x="240" y="270" width="30" height="30" fill="#434343"><animate attributeName="fill" values="#434343;#2d2d2d;#262626;#212121;#1a1a1a;#1a1a1a;#1b1b1b;#1a1a1a;#191919;#151515" dur="2.4s" calcMode="discrete" repeatCount="indefinite"/></rect><rect x="270" y="270" width="30" height="30" fill="#1e1e1e"><animate attributeName="fill" values="#1e1e1e;#0d0d0d;#0c0c0c;#0c0c0c;#0b0b0b;#0b0b0b;#0b0b0b;#0b0b0b;#0b0b0b;#0c0c0c" dur="2.4s" calcMode="discrete" repeatCount="indefinite"/></rect><rect x="300" y="270" width="30" height="30" fill="#0f0f0f"/><rect x="330" y="270" width="30" height="30" fill="#171717"><animate attributeName="fill" values="#171717;#171717;#191919;#1e1e1e;#181818;#1d1d1d;#1e1e1e;#202020;#202020;#202020" dur="2.4s" calcMode="discrete" repeatCount="indefinite"/></rect><rect x="360" y="270" width="30" height="30" fill="#191919"><animate attributeName="fill" values="#191919;#232323;#232323;#212121;#242424;#272727;#272727;#272727;#282828;#272727" dur="2.4s" calcMode="discrete" repeatCount="indefinite"/></rect><rect x="390" y="270" width="30" height="30" fill="#131313"><animate attributeName="fill" values="#131313;#252525;#1f1f1f;#1c1c1c;#141414;#141414;#131313;#141414;#131313;#121212" dur="2.4s" calcMode="discrete" repeatCount="indefinite"/></rect><rect x="420" y="270" width="30" height="30" fill="#0e0e0e"><animate attributeName="fill" values="#0e0e0e;#0d0d0d;#0d0d0d;#0d0d0d;#040404;#040404;#030303;#040404;#040404;#030303" dur="2.4s" calcMode="discrete" repeatCount="indefinite"/></rect><rect x="450" y="270" width="30" height="30" fill="#040404"/><rect x="0" y="300" width="30" height="30" fill="#080808"/><rect x="30" y="300" width="30" height="30" fill="#090909"/><rect x="60" y="300" width="30" height="30" fill="#090909"/><rect x="90" y="300" width="30" height="30" fill="#0e0e0e"/><rect x="120" y="300" width="30" height="30" fill="#1f1f1f"/><rect x="150" y="300" width="30" height="30" fill="#191919"><animate attributeName="fill" values="#191919;#191919;#1a1a1a;#1c1c1c;#202020;#202020;#202020;#222222;#222222;#212121" dur="2.4s" calcMode="discrete" repeatCount="indefinite"/></rect><rect x="180" y="300" width="30" height="30" fill="#444444"><animate attributeName="fill" values="#444444;#1a1a1a;#111111;#111111;#131313;#131313;#131313;#131313;#141414;#131313" dur="2.4s" calcMode="discrete" repeatCount="indefinite"/></rect><rect x="210" y="300" width="30" height="30" fill="#3d3d3d"><animate attributeName="fill" values="#3d3d3d;#191919;#0e0e0e;#0d0d0d;#0c0c0c;#0c0c0c;#0c0c0c;#0c0c0c;#0c0c0c;#0b0b0b" dur="2.4s" calcMode="discrete" repeatCount="indefinite"/></rect><rect x="240" y="300" width="30" height="30" fill="#1d1d1d"><animate attributeName="fill" values="#1d1d1d;#282828;#202020;#1e1e1e;#202020;#202020;#212121;#202020;#212121;#1f1f1f" dur="2.4s" calcMode="discrete" repeatCount="indefinite"/></rect><rect x="270" y="300" width="30" height="30" fill="#090909"><animate attributeName="fill" values="#090909;#2c2c2c;#323232;#2f2f2f;#333333;#333333;#333333;#333333;#313131;#333333" dur="2.4s" calcMode="discrete" repeatCount="indefinite"/></rect><rect x="300" y="300" width="30" height="30" fill="#404040"><animate attributeName="fill" values="#404040;#2c2c2c;#333333;#2a2a2a;#2f2f2f;#2c2c2c;#2c2c2c;#2b2b2b;#292929;#272727" dur="2.4s" calcMode="discrete" repeatCount="indefinite"/></rect><rect x="330" y="300" width="30" height="30" fill="#2d2d2d"><animate attributeName="fill" values="#2d2d2d;#1c1c1c;#242424;#2a2a2a;#2b2b2b;#2e2e2e;#2f2f2f;#2f2f2f;#2f2f2f;#2e2e2e" dur="2.4s" calcMode="discrete" repeatCount="indefinite"/></rect><rect x="360" y="300" width="30" height="30" fill="#222222"><animate attributeName="fill" values="#222222;#242424;#2e2e2e;#2c2c2c;#282828;#2a2a2a;#2c2c2c;#2b2b2b;#2e2e2e;#2c2c2c" dur="2.4s" calcMode="discrete" repeatCount="indefinite"/></rect><rect x="390" y="300" width="30" height="30" fill="#1e1e1e"><animate attributeName="fill" values="#1e1e1e;#313131;#2b2b2b;#272727;#1f1f1f;#1e1e1e;#1d1d1d;#1e1e1e;#1c1c1c;#181818" dur="2.4s" calcMode="discrete" repeatCount="indefinite"/></rect><rect x="420" y="300" width="30" height="30" fill="#1d1d1d"><animate attributeName="fill" values="#1d1d1d;#0e0e0e;#0e0e0e;#0d0d0d;#030303;#030303;#030303;#030303;#020202;#020202" dur="2.4s" calcMode="discrete" repeatCount="indefinite"/></rect><rect x="450" y="300" width="30" height="30" fill="#050505"/><rect x="0" y="330" width="30" height="30" fill="#080808"/><rect x="30" y="330" width="30" height="30" fill="#090909"/><rect x="60" y="330" width="30" height="30" fill="#090909"/><rect x="90" y="330" width="30" height="30" fill="#121212"/><rect x="120" y="330" width="30" height="30" fill="#2e2e2e"/><rect x="150" y="330" width="30" height="30" fill="#1c1c1c"><animate attributeName="fill" values="#1c1c1c;#242424;#242424;#2d2d2d;#2e2e2e;#2d2d2d;#2d2d2d;#2e2e2e;#2e2e2e;#2d2d2d" dur="2.4s" calcMode="discrete" repeatCount="indefinite"/></rect><rect x="180" y="330" width="30" height="30" fill="#0f0f0f"/><rect x="210" y="330" width="30" height="30" fill="#090909"/><rect x="240" y="330" width="30" height="30" fill="#090909"/><rect x="270" y="330" width="30" height="30" fill="#070707"/><rect x="300" y="330" width="30" height="30" fill="#545454"><animate attributeName="fill" values="#545454;#232323;#222222;#202020;#232323;#242424;#232323;#242424;#252525;#242424" dur="2.4s" calcMode="discrete" repeatCount="indefinite"/></rect><rect x="330" y="330" width="30" height="30" fill="#313131"><animate attributeName="fill" values="#313131;#242424;#2f2f2f;#292929;#2f2f2f;#2b2b2b;#2c2c2c;#2f2f2f;#2c2c2c;#2b2b2b" dur="2.4s" calcMode="discrete" repeatCount="indefinite"/></rect><rect x="360" y="330" width="30" height="30" fill="#222222"><animate attributeName="fill" values="#222222;#242424;#2f2f2f;#272727;#252525;#242424;#272727;#252525;#252525;#272727" dur="2.4s" calcMode="discrete" repeatCount="indefinite"/></rect><rect x="390" y="330" width="30" height="30" fill="#282828"><animate attributeName="fill" values="#282828;#262626;#262626;#202020;#1b1b1b;#191919;#181818;#191919;#181818;#151515" dur="2.4s" calcMode="discrete" repeatCount="indefinite"/></rect><rect x="420" y="330" width="30" height="30" fill="#232323"><animate attributeName="fill" values="#232323;#030303;#040404;#030303;#010101;#010101;#010101;#010101;#010101;#010101" dur="2.4s" calcMode="discrete" repeatCount="indefinite"/></rect><rect x="450" y="330" width="30" height="30" fill="#060606"/><rect x="0" y="360" width="30" height="30" fill="#080808"/><rect x="30" y="360" width="30" height="30" fill="#090909"/><rect x="60" y="360" width="30" height="30" fill="#090909"/><rect x="90" y="360" width="30" height="30" fill="#111111"><animate attributeName="fill" values="#111111;#141414;#181818;#171717;#1d1d1d;#1d1d1d;#1e1e1e;#1f1f1f;#1f1f1f;#202020" dur="2.4s" calcMode="discrete" repeatCount="indefinite"/></rect><rect x="120" y="360" width="30" height="30" fill="#2d2d2d"><animate attributeName="fill" values="#2d2d2d;#2e2e2e;#262626;#282828;#272727;#272727;#272727;#272727;#272727;#252525" dur="2.4s" calcMode="discrete" repeatCount="indefinite"/></rect><rect x="150" y="360" width="30" height="30" fill="#202020"><animate attributeName="fill" values="#202020;#212121;#262626;#282828;#2c2c2c;#2c2c2c;#2c2c2c;#2c2c2c;#2c2c2c;#2c2c2c" dur="2.4s" calcMode="discrete" repeatCount="indefinite"/></rect><rect x="180" y="360" width="30" height="30" fill="#161616"><animate attributeName="fill" values="#161616;#161616;#141414;#181818;#181818;#151515;#141414;#141414;#131313;#0f0f0f" dur="2.4s" calcMode="discrete" repeatCount="indefinite"/></rect><rect x="210" y="360" width="30" height="30" fill="#0e0e0e"/><rect x="240" y="360" width="30" height="30" fill="#080808"/><rect x="270" y="360" width="30" height="30" fill="#030303"/><rect x="300" y="360" width="30" height="30" fill="#080808"><animate attributeName="fill" values="#080808;#3c3c3c;#2e2e2e;#2a2a2a;#2f2f2f;#323232;#2d2d2d;#2f2f2f;#303030;#2d2d2d" dur="2.4s" calcMode="discrete" repeatCount="indefinite"/></rect><rect x="330" y="360" width="30" height="30" fill="#101010"><animate attributeName="fill" values="#101010;#121212;#181818;#1a1a1a;#202020;#222222;#262626;#242424;#242424;#252525" dur="2.4s" calcMode="discrete" repeatCount="indefinite"/></rect><rect x="360" y="360" width="30" height="30" fill="#1a1a1a"><animate attributeName="fill" values="#1a1a1a;#3d3d3d;#2b2b2b;#272727;#242424;#222222;#232323;#242424;#232323;#242424" dur="2.4s" calcMode="discrete" repeatCount="indefinite"/></rect><rect x="390" y="360" width="30" height="30" fill="#212121"><animate attributeName="fill" values="#212121;#202020;#222222;#1f1f1f;#191919;#181818;#181818;#181818;#181818;#151515" dur="2.4s" calcMode="discrete" repeatCount="indefinite"/></rect><rect x="420" y="360" width="30" height="30" fill="#141414"><animate attributeName="fill" values="#141414;#141414;#141414;#131313;#020202;#020202;#010101;#010101;#020202;#010101" dur="2.4s" calcMode="discrete" repeatCount="indefinite"/></rect><rect x="450" y="360" width="30" height="30" fill="#050505"/><rect x="0" y="390" width="30" height="30" fill="#080808"/><rect x="30" y="390" width="30" height="30" fill="#090909"/><rect x="60" y="390" width="30" height="30" fill="#090909"/><rect x="90" y="390" width="30" height="30" fill="#0b0b0b"><animate attributeName="fill" values="#0b0b0b;#111111;#171717;#1e1e1e;#232323;#232323;#212121;#202020;#202020;#202020" dur="2.4s" calcMode="discrete" repeatCount="indefinite"/></rect><rect x="120" y="390" width="30" height="30" fill="#1b1b1b"><animate attributeName="fill" values="#1b1b1b;#212121;#1d1d1d;#1f1f1f;#252525;#252525;#252525;#252525;#252525;#242424" dur="2.4s" calcMode="discrete" repeatCount="indefinite"/></rect><rect x="150" y="390" width="30" height="30" fill="#2e2e2e"/><rect x="180" y="390" width="30" height="30" fill="#141414"/><rect x="210" y="390" width="30" height="30" fill="#0f0f0f"/><rect x="240" y="390" width="30" height="30" fill="#121212"/><rect x="270" y="390" width="30" height="30" fill="#090909"/><rect x="300" y="390" width="30" height="30" fill="#0f0f0f"><animate attributeName="fill" values="#0f0f0f;#1f1f1f;#393939;#212121;#212121;#232323;#222222;#242424;#242424;#242424" dur="2.4s" calcMode="discrete" repeatCount="indefinite"/></rect><rect x="330" y="390" width="30" height="30" fill="#141414"/><rect x="360" y="390" width="30" height="30" fill="#1b1b1b"><animate attributeName="fill" values="#1b1b1b;#292929;#222222;#232323;#212121;#212121;#222222;#222222;#212121;#202020" dur="2.4s" calcMode="discrete" repeatCount="indefinite"/></rect><rect x="390" y="390" width="30" height="30" fill="#1e1e1e"><animate attributeName="fill" values="#1e1e1e;#1c1c1c;#1b1b1b;#1b1b1b;#0e0e0e;#0e0e0e;#0e0e0e;#0e0e0e;#0e0e0e;#0d0d0d" dur="2.4s" calcMode="discrete" repeatCount="indefinite"/></rect><rect x="420" y="390" width="30" height="30" fill="#010101"/><rect x="450" y="390" width="30" height="30" fill="#010101"/><rect x="0" y="420" width="30" height="30" fill="#080808"/><rect x="30" y="420" width="30" height="30" fill="#090909"/><rect x="60" y="420" width="30" height="30" fill="#090909"/><rect x="90" y="420" width="30" height="30" fill="#0b0b0b"><animate attributeName="fill" values="#0b0b0b;#141414;#141414;#1a1a1a;#202020;#202020;#212121;#212121;#222222;#212121" dur="2.4s" calcMode="discrete" repeatCount="indefinite"/></rect><rect x="120" y="420" width="30" height="30" fill="#1a1a1a"><animate attributeName="fill" values="#1a1a1a;#1a1a1a;#1a1a1a;#1b1b1b;#212121;#222222;#232323;#232323;#232323;#232323" dur="2.4s" calcMode="discrete" repeatCount="indefinite"/></rect><rect x="150" y="420" width="30" height="30" fill="#303030"><animate attributeName="fill" values="#303030;#2a2a2a;#2a2a2a;#242424;#202020;#202020;#212121;#1f1f1f;#1f1f1f;#1e1e1e" dur="2.4s" calcMode="discrete" repeatCount="indefinite"/></rect><rect x="180" y="420" width="30" height="30" fill="#1a1a1a"/><rect x="210" y="420" width="30" height="30" fill="#151515"/><rect x="240" y="420" width="30" height="30" fill="#171717"/><rect x="270" y="420" width="30" height="30" fill="#171717"/><rect x="300" y="420" width="30" height="30" fill="#191919"><animate attributeName="fill" values="#191919;#2f2f2f;#1b1b1b;#1c1c1c;#212121;#1f1f1f;#212121;#212121;#212121;#202020" dur="2.4s" calcMode="discrete" repeatCount="indefinite"/></rect><rect x="330" y="420" width="30" height="30" fill="#171717"><animate attributeName="fill" values="#171717;#191919;#181818;#1a1a1a;#1e1e1e;#212121;#212121;#202020;#232323;#212121" dur="2.4s" calcMode="discrete" repeatCount="indefinite"/></rect><rect x="360" y="420" width="30" height="30" fill="#232323"><animate attributeName="fill" values="#232323;#191919;#222222;#1d1d1d;#1d1d1d;#1d1d1d;#1d1d1d;#1e1e1e;#1d1d1d;#1b1b1b" dur="2.4s" calcMode="discrete" repeatCount="indefinite"/></rect><rect x="390" y="420" width="30" height="30" fill="#2f2f2f"><animate attributeName="fill" values="#2f2f2f;#141414;#141414;#141414;#131313;#141414;#151515;#151515;#151515;#151515" dur="2.4s" calcMode="discrete" repeatCount="indefinite"/></rect><rect x="420" y="420" width="30" height="30" fill="#131313"><animate attributeName="fill" values="#131313;#131313;#131313;#121212;#0a0a0a;#0a0a0a;#0b0b0b;#0c0c0c;#0b0b0b;#090909" dur="2.4s" calcMode="discrete" repeatCount="indefinite"/></rect><rect x="450" y="420" width="30" height="30" fill="#040404"/><rect x="0" y="450" width="30" height="30" fill="#060606"/><rect x="30" y="450" width="30" height="30" fill="#080808"/><rect x="60" y="450" width="30" height="30" fill="#141414"><animate attributeName="fill" values="#141414;#212121;#151515;#181818;#161616;#161616;#161616;#171717;#171717;#171717" dur="2.4s" calcMode="discrete" repeatCount="indefinite"/></rect><rect x="90" y="450" width="30" height="30" fill="#252525"/><rect x="120" y="450" width="30" height="30" fill="#373737"><animate attributeName="fill" values="#373737;#242424;#1d1d1d;#1a1a1a;#1b1b1b;#1b1b1b;#1b1b1b;#1b1b1b;#1a1a1a;#181818" dur="2.4s" calcMode="discrete" repeatCount="indefinite"/></rect><rect x="150" y="450" width="30" height="30" fill="#1d1d1d"><animate attributeName="fill" values="#1d1d1d;#181818;#171717;#191919;#131313;#131313;#141414;#141414;#151515;#121212" dur="2.4s" calcMode="discrete" repeatCount="indefinite"/></rect><rect x="180" y="450" width="30" height="30" fill="#161616"/><rect x="210" y="450" width="30" height="30" fill="#171717"/><rect x="240" y="450" width="30" height="30" fill="#1b1b1b"/><rect x="270" y="450" width="30" height="30" fill="#1a1a1a"><animate attributeName="fill" values="#1a1a1a;#1c1c1c;#202020;#222222;#252525;#292929;#2a2a2a;#2a2a2a;#2b2b2b;#2c2c2c" dur="2.4s" calcMode="discrete" repeatCount="indefinite"/></rect><rect x="300" y="450" width="30" height="30" fill="#3d3d3d"><animate attributeName="fill" values="#3d3d3d;#232323;#2f2f2f;#2f2f2f;#333333;#343434;#343434;#363636;#353535;#323232" dur="2.4s" calcMode="discrete" repeatCount="indefinite"/></rect><rect x="330" y="450" width="30" height="30" fill="#272727"><animate attributeName="fill" values="#272727;#242424;#313131;#292929;#212121;#222222;#222222;#232323;#222222;#1f1f1f" dur="2.4s" calcMode="discrete" repeatCount="indefinite"/></rect><rect x="360" y="450" width="30" height="30" fill="#202020"><animate attributeName="fill" values="#202020;#1f1f1f;#181818;#1e1e1e;#1a1a1a;#181818;#181818;#171717;#181818;#171717" dur="2.4s" calcMode="discrete" repeatCount="indefinite"/></rect><rect x="390" y="450" width="30" height="30" fill="#242424"><animate attributeName="fill" values="#242424;#141414;#161616;#161616;#181818;#161616;#161616;#161616;#161616;#161616" dur="2.4s" calcMode="discrete" repeatCount="indefinite"/></rect><rect x="420" y="450" width="30" height="30" fill="#161616"/><rect x="450" y="450" width="30" height="30" fill="#171717"><animate attributeName="fill" values="#171717;#0e0e0e;#0c0c0c;#0c0c0c;#030303;#030303;#030303;#030303;#030303;#030303" dur="2.4s" calcMode="discrete" repeatCount="indefinite"/></rect></svg>
